M48
; DRILL file KiCad 10.0.4 date 2026-07-14T19:34:09
; FORMAT={-:-/ absolute / metric / decimal}
; #@! TF.CreationDate,2026-07-14T19:34:09+02:00
; #@! TF.GenerationSoftware,Kicad,Pcbnew,10.0.4
; #@! TF.FileFunction,MixedPlating,1,2
FMAT,2
METRIC
; #@! TA.AperFunction,Plated,PTH,ComponentDrill
T1C0.800
; #@! TA.AperFunction,Plated,PTH,ComponentDrill
T2C0.900
; #@! TA.AperFunction,Plated,PTH,ComponentDrill
T3C1.200
; #@! TA.AperFunction,NonPlated,NPTH,ComponentDrill
T4C3.200
%
G90
G05
T1
X48.9Y-33.78
X59.06Y-33.78
X61.6Y-33.78
X61.6Y-36.32
X69.22Y-33.78
X69.22Y-36.32
T2
X21.8Y-28.7
X21.8Y-31.24
X21.8Y-33.78
X21.8Y-36.32
X21.8Y-38.86
X21.8Y-41.4
X21.8Y-43.94
X21.8Y-46.48
X44.66Y-28.7
X44.66Y-31.24
X44.66Y-33.78
X44.66Y-36.32
X44.66Y-38.86
X44.66Y-41.4
X44.66Y-43.94
X44.66Y-46.48
T3
X72.5Y-33.78
X72.5Y-38.86
X72.5Y-45.5
X72.5Y-50.58
T4
X52.0Y-24.3
X70.5Y-24.3
M30
